<svg version="1.1" class="florida-map" xmlns="http://www.w3.org/2000/svg" xmlns:xlink="http://www.w3.org/1999/xlink" viewBox="130.5 0 536 500">
<path d="M570.419,487.711l-0.525-0.02l-0.264,0.253l0.197,0.51l0.226,0.27l0.631,0.422l0.525,0.712l0.146-0.368l-0.349-1.112
	L570.419,487.711z M563.886,491.361l0.183,0.24l0.483,0.305l0.283-0.593l-0.49-0.296L563.886,491.361z M567.048,404.439
	l-0.795,0.523l0.027,0.368l1.824,0.725l0.508-0.112l0.504-0.537l-0.257-0.523l-0.8-0.168l-0.385,0.106l-0.279,0.162l-0.181-0.339
	L567.048,404.439z M566.416,485.898l-2.05-1.603l-0.48-0.076l-0.204-0.125l-0.202-0.266l4.548,7.042l0.097,2.252l1.525-1.153
	l-1.014-2.969L566.416,485.898z M564.346,404.13l0.756,0.911l0.226,0.251l0.257,0.115l-0.013-0.221l0.183-0.223l0.258-0.342
	l0.405-0.286l0.696-0.082l0.466-0.221l-0.183-0.467l-0.491-0.366l-0.467-0.24l-1.238-0.974l-0.479-0.471l-1.187-0.593l-0.768,0.651
	l-0.042,0.753l0.102,0.441v1.731l0.446-0.059l0.547-0.517L564.346,404.13z M561.89,402.849l0.204-0.504l-0.204-0.51l-0.183-0.23
	l-0.137-0.636l-0.488-1.162l-0.632-0.53l-1.077,0.21l-0.304,0.158l-0.607,0.134l-0.933,0.471l-0.206,0.833l0.329,0.448l0.206,0.201
	v0.303l0.076-0.033l0.124-0.513l0.064-0.299l0.012-0.349l0.352-0.27l0.321,0.251l0.204,0.264l1.078,0.086l0.384,0.543l0.202,0.411
	l0.289,0.441l0.482,0.484L561.89,402.849z M562.262,489.429l-0.509-0.052l-0.141,0.234l0.239,0.02l-0.097,0.125l-0.45,0.383
	l0.086,0.507l0.79,0.698l0.162,0.326l0.362,0.017l0.146-0.751l-0.181-0.837L562.262,489.429z M574.828,490.121l-0.858,1.03
	l0.103,0.145l0.67-0.362l0.55-0.526l-0.124-0.309L574.828,490.121z M615.119,457.557l0.958,0.569l-0.247-0.465L615.119,457.557z
	 M612.824,455.006l0.371,0.589l0.119-0.608L612.824,455.006z M615.076,456.2l-0.298-0.181l-0.087,0.751l0.204-0.089l0.265-0.076
	L615.076,456.2z M585.116,486.77l-1.401,0.651l2.213,0.02l0.768,0.448l0.351,1.11l0.347-1.01l0.444-0.708l0.608-0.51l1.623-0.651
	l0.201-0.221l0.064-0.52l-1.483,0.217L585.116,486.77z M611.529,465.213l-0.039,0.487l0.469-0.389L611.529,465.213z
	 M559.884,489.225l-0.222-0.257l-0.507-0.409l-0.53-0.247l-0.427-0.039l-0.321-0.201l-0.226,0.059l-0.289,0.794l-0.074,0.993
	l0.278,0.651l0.162,0.158l0.188,0.138l0.321,0.086l0.291-0.184l0.342-0.099l0.424,0.141l0.385,0.389l0.285,0.543l0.208-0.322
	l-0.108-1.38L559.884,489.225z M612.236,475.399l-0.586,0.309l-0.427,0.411l-0.162,0.48l0.323,0.043l1.054-0.695l0.513-0.366
	l0.789-0.905l-0.104-0.352L612.236,475.399z M607.265,478.125l-0.427,0.402l-0.185-0.119l0.021-0.534l0.119-0.721l-3.063,2.185
	l-0.685,0.833l2.51-0.181l1.119-0.305l0.591-0.526l0.349-0.467l0.097-0.223l-0.023-0.342h-0.422V478.125z M590.804,486.411
	l5.089-2.176l0.993-0.915l0.856-0.158l0.283-0.151l0.282-0.253v-0.467l-2.166,0.48L590.804,486.411z M609.598,462.509l0.471,0.757
	l0.021-0.383l-0.245-0.651L609.598,462.509z M544.82,398.915l0.183,0.362l0.187,0.504l0.405,0.208l0.896,0.121l0.364-0.422
	l0.833-1.465l-0.245-0.79l-0.876-0.329l-0.865,0.145l-0.696-0.039l-0.646,0.073l-0.159,0.695l0.134,0.45l0.162,0.178L544.82,398.915
	z M507.49,338.403l-0.086-1.83l-0.437-0.392l-0.226-0.121h-0.329l0.876,3.598l0.589,1.538l0.935,1.752l-0.265-1.725L507.49,338.403z
	 M345.98,93.928l-1.621,1.039l-2.742,1.437l-0.526,0.663l3.836-0.832l1.543-0.852l0.688-1.557l-0.503-0.161L345.98,93.928z
	 M480.977,283.959l-1.662-3.065l-0.676-0.573l-1.15-0.55l0.304,0.952l0.828,1.324l0.491,0.589l0.567,1.198l2.923,3.453l1.198,0.928
	l-0.26-1.175L480.977,283.959z M506.573,331.681l-0.342-1.666l-0.747-1.768l-0.33-0.53l-0.202,0.059l-0.406,0.471l0.649,1.402
	l0.226,3.73l0.568,1.627l0.512-1.705L506.573,331.681z M452.924,146.847l-0.349-0.469l-0.48-0.343l-0.51,0.428l-0.044,1.094
	l0.574,0.322l0.889-0.424l0.491-0.181l-0.227-0.125L452.924,146.847z M336.995,100.101l-0.916,0.299l-0.322,0.142l-0.244,0.371
	l-0.29,0.342l-0.544,0.161l-0.714,0.12l-0.18,0.282l-0.039,0.349l-0.226,0.322l-14.634,7.047l-3.025,0.752l-1.544,0.102l-1.868-1.14
	l-1.116-0.264l1.79,1.222l1.518,0.469l4.021-0.023l1.463-0.445l4.181-2.415l1.441-1.222l6.843-2.94l4.076-3.189l1.568-0.631
	l-0.02-0.322l0.563-0.531l0.386-0.179v-0.591l-0.876,0.47L336.995,100.101z M631.683,249.159l1.975,5.726l1.277,2.255l0.162,0.671
	l0.14,0.932l0.607,1.564l0.342,2.315l0.491,1.09l0.629,0.997l0.608,1.296l2.826,11.633l0.869,2.456l0.106,0.98l0.204,0.428
	l0.95,0.764l0.202,0.368l0.266,1.116l4.183,9.194l0.727,3.005l1.399,1.666l0.979,2.189l-0.289-1.781l-11.727-31.569l-0.223-1.225
	l-0.131-1.593l-0.3-1.603l-0.973-2.88l-2.785-4.862l-1.397-3.167l-0.531-3.148l-0.206-0.277l-0.178-0.158l-0.12-0.23v-0.382
	l-0.51,0.163l-0.184,0.14l-0.24,0.262L631.683,249.159z M203.94,46.682l-2.371,0.617l-0.466-0.55l-1.624,0.691l-7.392,0.992
	l-3-0.098l-1.059,0.14l-1.89,0.723l-0.629,0.27l-1.684,0.544l-4.89-0.055l-4.022,1.418l-7.954,1.341l-5.581,0.121l-1.262,0.47
	l3.798,0.484l46.692-5.946l0.749,0.35l0.773,0.119l0.687-0.119l0.573-0.35l-6.561-0.852L203.94,46.682z M311.877,105.618
	l0.385-0.383l-0.159-0.855l-0.106-0.086l-0.876-0.072l-0.907-0.329l-1.708-0.262l-0.991,0.851l-1.283,0.102l-2.838-0.428
	l0.705,0.607l1.386,0.554l0.727,0.41l0.47,0.543l0.466,0.725l0.526,0.651l0.607,0.269l1.465,0.542h0.811l0.351-0.792l0.161-0.725
	l0.362-0.71L311.877,105.618z M519.014,354.806l-1.313,0.115l-2.273-0.51l-1.342-0.567l-1.057-0.829l-0.813-1.175l-0.586-1.584
	l-0.183-0.853l-0.265-0.734l-0.366-0.61l-0.607-0.471l0.303,2.358l0.651,2.397l0.484,1.138l0.631,0.833l0.751,0.625l4.161,2.416
	l1.056,0.247l1.175-0.388l1.748-1.465l1.302-0.283l-2.859-1.56L519.014,354.806z M547.911,495.642l-1.869,0.513l-0.813,0.039
	l-0.649-0.554h-0.43l-0.321,0.448l-0.146,0.428l0.082,0.383l0.385,0.381v0.471l-0.692,0.77l-0.302,0.244l5.219-1.484l-0.309-1.287
	L547.911,495.642z M542.403,497.771l-0.279-0.279l-0.366-0.21h-0.427l-1.406,1.222l-0.523,0.264l-0.734-0.052l-0.73-0.244
	l-0.587,0.162l-0.289,1.175l2.074-0.283l1.033-0.309l0.651-0.448l0.286-0.465l0.223-0.55l0.279,0.431l0.063-0.023l0.02-0.247
	l0.064-0.162l0.163,0.389l0.179,0.309l0.244,0.201l0.386,0.115l-0.106-0.582L542.403,497.771z M617.456,459.627l0.303-0.201
	l-0.184-0.45l-0.324,0.204L617.456,459.627z M555.454,488.998l-0.222-0.073l-0.201,0.02l-0.121-0.108l0.044-0.383h-0.428
	l-0.467,1.586l0.692,0.08l0.469,0.181l0.097,0.286l-0.362,0.431v0.563l1.239-0.108l0.725,0.411l0.226,0.731l-0.326,1.014h-0.423
	l-0.366-0.892l-0.896-0.593l-2.03-0.563l0.406,0.523l0.427,0.368l1.017,0.645l-0.513,0.649l-0.225,0.132l-0.158,0.247l-0.427,0.296
	l-1.509,0.738l-0.683-0.409l-0.789,0.299l-1.346,1.142v0.504l4.911-1.396l2.359-0.974l1.706-1.228v-0.563l-2.359-2.745
	L555.454,488.998z M555.986,397.552l-0.466-0.543l-0.854-0.085l-0.184,0.649l0.163,0.448l0.329,0.342l0.427,0.223l0.095,0.671
	l-0.159,1.155l0.206,0.305l0.627-1.317l0.204-0.586l-0.162-0.493l-0.351-0.388l-0.14-0.221l0.064-0.052L555.986,397.552z
	 M515.752,337.952l-1.338-1.38l-1.384-0.513h-0.93l0.896,2.235l1.294,2.44l0.914,2.334l-0.285,1.906l0.897,1.484l1.031,3.756
	l0.91,1.56l0.916,0.326l0.063-1.339l-0.49-3.914l-0.547-1.123l-1.054-1.642l-0.815-1.698l0.674-2.743L515.752,337.952z
	 M516.101,495.885l-0.854-0.266l-0.778,0.195l-0.179,0.214l0.385-0.033l0.368,0.02l0.462,0.273l0.574,0.309l0.548,1.073l0.08,0.411
	l0.184-0.734l-0.127-0.809L516.101,495.885z M515.484,498.972l-0.034,0.201l0.687-0.201l0.349-0.283l-0.329,0.056L515.484,498.972z
	 M585.604,440.874l0.568,0.448l0.651,0.409l0.179-0.74l0.163-0.339l-0.043-0.329l-0.183-0.567l-0.568-0.099l-0.789,0.178
	l-0.265-0.039l0.144-0.158l-0.413-0.128l-0.405,0.409L585.604,440.874z M477.775,166.741l0.48,0.119l0.245-0.162l-0.063-0.159
	l-0.24-0.061l-0.244-0.181l-0.351-0.14h-0.386l-0.244,0.159l0.131,0.123l0.222-0.026L477.775,166.741z M469.082,150.499l0.014-0.381
	l-0.321-0.202h-0.322l-0.368,0.181l-0.116,0.564l0.239,0.289l0.453-0.141L469.082,150.499z M476.336,175.229l0.134,0.444
	l0.269,0.264l-0.061,0.309l-0.265,0.399l-0.057,0.201l0.322,0.086h0.727l0.569-0.49l0.025-0.811l-0.45-0.585l-0.55-0.288
	l-0.484,0.039L476.336,175.229z M474.095,169.074l-0.121,0.411l0.321,0.181l-0.017-0.2L474.095,169.074z M473.282,174.49
	l-0.244,0.129l-0.057,0.242l0.223-0.101L473.282,174.49z M479.272,193.841l0.202-0.108l0.061-0.18l-0.286-0.525l-0.611,0.039
	l0.352,0.228l0.221,0.345v0.141L479.272,193.841z M475.416,180.136l0.286-0.073l0.277-0.168l0.065-0.161l-0.342-0.087l-0.349,0.268
	L475.416,180.136z M474.948,168.304l-0.204,0.061l-0.042,0.362l0.285-0.273l0.184,0.159l0.043,0.162l0.469-0.504l-0.29-0.248
	l-0.285,0.055l0.188,0.195l-0.064,0.094L474.948,168.304z M474.095,172.424l0.145,0.223l0.568-0.302l0.286-0.022l0.181,0.101
	l0.3,0.103l0.226-0.162l-0.226-0.149l-0.61-0.18l-0.586,0.129L474.095,172.424z M476.773,168.673l0.832-0.168l0.651,0.09
	l0.285-0.029l0.023-0.161l-0.266-0.243l-0.342-0.161h-0.329l-0.448,0.102l-0.44,0.282L476.773,168.673z M619.726,191.856
	l-1.153-2.334l-0.956,0.059l-0.852,0.371l-1.521,1.125l-1.458,0.88l-0.405,0.543l-0.428,1.283l-1.463-0.048l-0.533,2.114
	l0.168,2.546l0.631,1.232l0.586,6.275l0.342,1.443l0.996,1.684l2.433,7.431l1.035,2.128l-0.119-1.155l-0.51-1.261l-0.611-1.526
	l-0.134-0.91l0.057-0.734l0.326-1.402l0.424-9.521l0.588-2.945l2.134-4.847L619.726,191.856z M479.822,167.437l-0.67-0.287
	l-0.428,0.18l0.693,0.49l-0.084,0.364l0.102,0.382l-0.018,0.389l0.162,0.382l0.49,0.368l0.163-0.239l-0.046-0.23l-0.116-0.18
	l0.013-1.073L479.822,167.437z M617.777,220.212l0.188,0.832l0.101,0.954h0.509l-0.201-0.713l-1.141-2.51L617.777,220.212z
	 M478.83,187.118l0.238,0.167l0.181,0.08l0.065-0.2l0.039-0.283l-0.082-0.309l-1.093-0.093l-0.106,0.093l0.33,0.107L478.83,187.118z
	 M477.57,184.729l-0.146-0.525l-0.141,0.161L477.57,184.729z M478.339,181.706l-0.266-0.288l-0.061,0.363l0.185,0.087
	L478.339,181.706z M479.474,177.586l-0.526-0.128l-0.567,0.225l0.159,0.349l1.238-0.303L479.474,177.586z M477.709,178.813
	l-0.384-0.112l-0.406,0.18v0.282l0.247,0.142l-0.193,0.087l-0.257-0.02l-0.265,0.02l-0.023,0.255l0.996,0.375l-0.02,0.296
	l0.265,0.206h0.304l0.099-0.061l0.366-0.569l0.063-0.935l-0.469-0.198L477.709,178.813z M587.674,442.562l0.266,0.993l0.529,0.889
	l0.544,0.204l0.487-0.322l0.226-0.484l0.607-0.898l-0.201-0.813l-0.329-0.145l-0.846-0.184l-0.896,0.128L587.674,442.562z
	 M625.087,450.885l-0.245,0.052l-0.101,0.286l-0.326,0.102l-0.202,0.29l0.083,0.02l0.504-0.108L625.087,450.885z M629.026,456.951
	l-0.206-1.034l-0.285,0.731l-0.503,0.402l-0.108,0.303l-0.159,0.086l-0.162,0.277l0.162,0.23l0.877-0.935L629.026,456.951z
	 M648.291,427.943l-0.202,0.368l-1.098,4.379l-0.587,1.222l-0.933,0.751l0.202,0.08l0.164,0.02l0.095,0.102l0.98-0.911l0.928-1.607
	l0.651-1.725l0.265-1.642l0.121-0.322l0.123-0.608l-0.103-0.385L648.291,427.943z M650.424,410.242l-0.286,0.405l-0.386,0.342
	l-0.53,0.346v0.467l0.308,0.086l0.183,0.115l0.183,0.162l0.265,0.145l-0.73,0.688l-0.106,0.796l0.427,0.61l0.876,0.039l0.322-0.487
	l0.138-4.23h-0.461L650.424,410.242z M621.211,453.191l0.244-0.523l-0.467-0.29l-0.513-0.201l-0.277,0.352l0.223,0.32
	L621.211,453.191z M616.932,456.99l-0.352,0.106v0.201l0.286,0.305l0.101,0.422l0.201,0.102l0.125,0.24l0.163-0.322v-0.543
	l-0.206-0.286L616.932,456.99z M597.538,446.354l0.247,0.467l0.12,1.097l0.121-0.063l0.266-0.471l0.141-0.649l-0.362-0.974
	l-0.43-0.471l-0.403,0.45l-0.084,0.576l0.138,0.095L597.538,446.354z M641.855,439.451l-1.85,2.7l-0.914,0.573l-2.189,0.54
	l-0.446,0.471l0.24,0.853l0.548,0.409l0.508,0.507l0.162,1.093l-0.651,1.59l-2.535,2.728l-1.319,3.295l-3.106-0.645l-0.424,1.333
	l0.97-0.385l0.79,0.29l0.393,0.708l-0.265,0.889l-0.534-0.26l-0.234-0.02l0.013,0.279l0.328,0.554l-0.611,0.911l-0.752,0.389
	l-1.464,0.204l0.244,0.971l-0.441,0.896l-1.705,1.785l-0.979,1.61l-0.525,0.385l-1.119,0.119l-0.367,0.441l-0.807,2.64l-0.794,0.329
	l-1.034,0.24l-0.65,0.402l0.362,0.833l1.343-0.013l1.56-1.54l2.539-3.332l2.134-1.847l0.523-0.774l0.631-1.768l0.448-0.816
	l0.769,0.23l0.734-0.428l5.603-5.517v-0.474l-0.308-1.153l0.852-1.847l2.255-3.232l2.008-2.59l0.349-0.757l0.141-0.593l0.341-0.885
	l0.448-0.872l0.469-0.491l0.286-0.162l0.258-0.221l0.223-0.29l0.226-0.428l-1.504-0.602L641.855,439.451z M618.811,470.168
	l-2.166,2.644l0.692-0.266l1.441-1.469l0.567-0.889l0.021-0.162l-0.063-0.27L618.811,470.168z M585.624,438.579l-0.405,0.204
	l-0.221,0.359l0.503,0.164l2.439,0.168l0.08-0.221l-1.099-0.184L585.624,438.579z M589.663,441.601l0.631-0.484l-0.162-0.29
	l-1.198-0.322l-0.383,0.125l-0.148,0.409l0.182,0.441l0.328,0.303L589.663,441.601z M659.454,334.986l-0.403-2.397l-0.92-1.192
	v-0.573l1.059-1.116v-2.064l-1.782-7.338l-0.449-0.79l-0.65-0.51l-1.52-0.437l-0.875-0.409v-0.471l0.813-0.383l0.809-0.108
	l0.714-0.24l0.484-0.833l-0.1-0.915l-1.3-2.795l-1.42-4.167l-1.666-3.362l-0.201-1.123l-0.449-1.214l-1.93-0.974l-0.448-1.001
	l-2.598-2.907l-0.544,0.089l-1.544,0.491l-0.589-0.223l-1.098-0.698l-0.48-0.132l-1.749-2.034l-0.406-0.651l0.916-0.059l0.587,0.309
	l0.426,0.435l0.462,0.376l1.544,0.794l2.745,0.705l0.789,0.691l0.61,1.544l-0.063-1.201l-10.15-24.538l-2.433-11.7l-22.03-48.838
	l-0.526-1.846l-2.026-4.121l-1.281-4.444l-0.629-1.585l-1.623-7.529l-0.265-3.189l-0.269-1.524l-2.127-4.141l0.525-0.483v-0.59
	l-0.769-1.888l-1.123-7.106l1.346,0.586l2.291,2.134l2.961,1.081l0.204,1.375l-0.525,1.582l-0.589,1.183l-0.508-0.491l-0.504,1.116
	l-0.266,1.501v1.544l0.286,1.155l0.974,1.121l1.236,0.582l4.386,0.752l0.608-0.013l0.829-0.266l0.044-0.27l-0.083-1.127l0.039-0.291
	l0.45-0.018l0.383,0.222l0.343,0.27l0.223,0.112l1.366-0.112l0.93,0.342l0.607,0.766l0.424,1.179l0.512,3.087l-0.063,3.087
	l-2.07,9.841l-0.146,13.381l0.651,3.27l2.05,6.166l4.064,7.392l0.65,2.696l2.05,2.403l0.279,0.543l0.222,0.711l1.67,3.23
	l-0.077-3.328l-5.529-8.491l-1.441-3.308l-0.221-1.235l-0.995-2.217l-1.465-7.89l-0.321-4.262l0.181-1.663l-0.51-0.531l0.491-0.992
	l0.043-7.614l0.223-0.409l0.544-0.26l0.53-0.593l0.367-0.651l0.162-0.422l0.627-0.121l1.218-1.428l0.853-1.645l-1.034-1.539
	l-1.664-5.082l-4.102-7.268l-3.637-5.153l-4.322-7.995l-9.275-14.76l-0.366-1.497l-0.607-1.409l-1.195-0.885l-0.876-0.898
	l0.386-1.375l-6.356-11.862l-4.487-12.424l-4.121-9.234l-3.046-5.684l-0.444-1.436l-0.303-1.607l-0.097-1.576l-0.303-1.48
	l-2.09-3.693l-0.961-4.725l-0.683-0.698l-0.446-0.854l-0.384-3.892l-0.351-1.137l0.51-0.587l-0.692-0.311l-0.449-0.443l-0.119-0.591
	l0.278-0.745l-0.385-0.128l-0.627-0.322l-0.386-0.107l0.405-2.508l-2.329-9.115l-0.423-5.996l-0.309-1.514l-1.486-2.726
	l-0.606-1.437l-2.213-8.67l-0.082-3.27l0.469-3.529l-0.226-0.753l-0.491-0.53l-0.482-0.423l-0.201-0.449l0.226-2.557l-0.226-1.007
	l-0.366-0.738l-0.308-0.29l-0.341-0.179l-0.407-0.422l-0.329-0.633l-0.449-1.214l-0.424-0.632l-1.867-1.551l-0.038-0.322
	l-1.18-0.444l-0.523-1.121l-0.089-1.414l0.162-1.396l-0.055-1.795l0.14-0.67l0.608-0.269l0.651,0.255l0.53,0.624l0.345,0.792
	l0.12,0.804l0.039,1.841l0.181,1.45l0.567,1.119l1.1,0.813l-0.269-2.296l0.269-6.739l0.51-2.129l0.117-1.362l-0.362-0.582
	l-0.244-0.184l-0.065-0.368l-0.116-0.371l-0.531-0.179l-0.523,0.078l-0.954,0.392l-0.427,0.08l-1.631-0.658l-0.055-0.624
	l-0.507-0.121l-1.239-0.342l-2.232,0.671l-0.65,0.013l-2.842-0.645l-0.693-0.309l-0.928-0.581l-0.491-0.022l-0.715,0.115
	l-0.747-0.081l-3.309-0.992l-1.012-0.449l-0.693-0.418l-0.448-0.431l-0.664-0.469l-0.979-0.262l-0.624-0.059l-0.616,0.08
	l-6.265-2.584l-0.94-0.523l-0.522-0.411l-1.014-0.642l-0.612-0.142l-0.53-0.021l-0.427,0.021l-0.953-0.06l-0.53,0.039l-0.587,0.163
	l-0.342,0.302l-0.181,0.321l-0.107,0.509v0.162l-0.077,0.537l-0.084,0.376l-0.221,0.369l-0.291,0.251l-0.619,0.111l-0.573-0.072
	l-0.711-0.222l-0.349,0.093l-0.202,0.282l-0.138,0.838l-0.097,0.449l-0.206,0.377l-0.816,0.811l-0.202,0.311l-0.14,0.347
	l-0.099,0.363l-0.044,0.773l0.227,1.974l-0.04,0.454l-0.082,0.512l-0.486,1.804l-0.043,0.449l0.063,0.935l0.14,0.625l0.222,0.738
	l0.322,0.705l1.321,1.873l0.302,0.604l0.107,0.389l0.084,0.792l-0.023,0.918l-0.935,5.275l-1.377,4.956l-0.183,1.034l-0.043,0.49
	l0.141,2.295l-0.023,0.488l-0.141,0.617l-0.265,0.309l-0.364,0.181l-1.886,0.523h-0.302l-0.349-0.042l-1.282-0.402l-0.461-0.08
	l-3.192,0.371l-0.65-0.05l-0.482-0.161l-0.372-0.242l-0.255-0.287l-0.393-0.687l-1.035-2.945l-0.14-0.708l-0.018-0.388l0.039-0.463
	l0.181-0.939l0.341-1.155l0.064-0.428l0.044-0.403l-0.044-0.363l-0.097-0.362l-0.329-0.706l-0.302-0.503l-1.621-2.106l-0.372-0.645
	l-0.077-0.329v-0.33l0.119-0.302l0.289-0.509l0.204-0.504v-0.248l-0.15-0.115l-2.836-0.181l-2.521-0.187l-3.226-0.223l-3.875-0.266
	l-4.492-0.302l-5.026-0.345l-5.548-0.39l-5.99-0.401l-6.389-0.449l-6.739-0.45l-7.044-0.49l-7.289-0.504l-7.469-0.503l-7.612-0.529
	l-7.695-0.531l-7.736-0.522l-7.731-0.525l-7.65-0.538l-7.537-0.504l-7.367-0.51l-7.15-0.484l-6.86-0.49l-6.533-0.443l-6.17-0.41
	l-5.752-0.402l-5.253-0.362l-4.708-0.329l-4.141-0.29l-3.51-0.227l-2.825-0.195l-2.073-0.141l-1.277-0.08l-0.444-0.04l-2.174-0.141
	l-0.607,0.094l-3.063-3.261l-1.037-5.24l-0.084-3.371l-0.504-1.863l-0.936-1.889l-0.586-0.589l-0.551-2.399l-0.392-0.872
	l-0.419-0.427l-1.2-0.85l-0.303-0.366l-0.064-0.995l0.142-0.266h-98.32l-10.919,0.026h-68.655l-0.445,1.117l0.117,3.739
	l-0.098,0.383l-1.426,3.089l-0.258,0.807l-0.103,0.492l-0.059,0.488l0.099,0.624l0.287,0.65l0.687,1.081l0.789,0.99l3.317,3.27
	l0.383,0.591l1.419,2.629l0.973,1.364l0.974,0.779l5.527,3.381l0.542,0.504l0.247,0.287l0.084,0.794l-0.065,1.172l-0.446,2.773
	l-0.546,2.081l-1.181,2.116l-0.258,0.691l-0.084,0.341l0.162,1.281l1.278,3.8l0.064,0.074l1.154,0.671l0.49,0.389l0.59,0.242
	l1.377-0.149l0.587,0.149l0.594,0.772l0.342,1.095l-0.04,0.953l-0.629,0.435l-1.663,0.376l-1.282,0.98l-2.009,2.437v0.544
	l0.833,0.591l0.043,0.79l-0.51,0.812l-0.791,0.611l-0.832,0.204l-1.709-0.04l-0.833,0.321l1.206,0.422l1.172,0.611l-2.54,0.349
	l-0.787,0.248l-0.612,0.418l-0.424,0.47l-0.467,0.409l-0.792,0.329v0.585l0.736-0.342l1.516-0.43l0.568,0.187l1.181-0.678
	l9.764-2.069l1.542-0.689l-0.245-1.444l0.692-0.242l1.752-0.262l0.589-0.33l0.26-0.772l-0.206-1.96l0.168-0.757l1.275-0.792
	l1.567-0.124l1.324-0.48l0.564-1.851l0.281,0.226l0.084,0.08l0.142,0.183h0.424l1.62-3.068l0.269-0.974l-0.302-1.402l-1.279-2.014
	l-0.308-0.974l-0.245-2.535l0.245-0.854l0.999-0.153l0.79,0.483l0.367,0.813l0.49,0.691l1.175,0.179l-0.14,0.362l-0.168,0.941
	l-0.137,0.362l1.501,0.202l0.587,1.141l0.225,1.402l0.466,1.047l-0.392,1.103l-0.117,1.3l0.386,0.913l1.054-0.039l0.693-0.873
	l0.471-2.726l0.866-1.845l1.482-4.324l0.364-0.576l0.064-0.781l-0.651-1.409l1.465,0.851l0.753,1.646l0.704,1.059l1.304-0.86
	l0.386,0.484l0.084,0.255l0.057,0.363l-2.351,1.048l-0.999,0.858l-0.407,1.134l0.104,0.778l0.345,0.377l0.51,0.128h0.685
	l0.308,0.349l0.931,1.542l0.614,0.345l1.155,0.112l1.546,0.41l1.422,0.698l0.83,0.953l-0.103,0.85l-0.995-0.328l-1.277-0.704
	l-0.907-0.363l-4.47,3.664l-1.238,0.223l-3.76,0.039l-4.142,1.121l-2.573,1.214l-0.573,0.14l-0.426,0.35l-0.281,0.875l3.449-0.431
	l6.841-1.914l10.681-1.449l3.855-0.044l1.95-0.326l1.517-0.765l1.462,0.599l5.584-0.599l5.355,0.324l0.794-0.577l-0.034-1.215
	l0.097-0.341l1.601,0.242l0.854-0.262l0.856-1.161l0.607-0.264l0.896-0.074l0.896-0.294l0.809-0.411l0.708-0.544l0.149-0.582
	l-0.349-1.987l-0.043-0.939l0.574,1.034l0.683,0.756l0.651,0.121l0.47-0.879l0.504-0.405l0.671-0.161l1.645,0.042l-1.561,2.134
	l-0.308,1.174l0.939,1.013l1.215,0.161l0.953-0.584l0.851-0.772l0.973-0.39l1.345-0.153l2.984-0.799l1.317-0.161l2.923,0.51
	l1.379-0.108l1.12-1.013l0.834,2.125l0.896,0.76l1.217-0.266l1.785-0.894l-0.046,1.324l-0.501,0.383l-0.342,0.362l0.386,1.204
	l2.09,2.274l0.059,0.428l0.55,0.585l-0.082,1.095l-0.671,0.589l-1.218-0.927l-0.692-0.397l-3.29-0.945l-1.867-1.482l-0.974-0.612
	l-0.948-0.119l-0.876,0.463l0.163,0.576l0.829,0.444l1.059,0.181l0.321,0.228l-0.204,0.503l-0.44,0.546l-0.427,0.309l-3.107-0.774
	l-0.756-0.671l-0.501-0.89l-0.287-0.913l-0.061,0.08l-0.078-0.121l-0.329,0.042l-0.386,0.811l-0.362,1.094l-0.51,0.932l-0.849,0.411
	l-4.51-1.037l-5.52-0.18l-1.098-0.369l-0.057,0.242v0.219l-0.082,0.128l1.785,1.176l8.261,0.952l11.813,3.247l8.732,2.685
	l7.979,4.175l5.884,2.926l8.262,6.068l1.624,0.41l-0.527-0.752l-0.424-0.509l0.546-0.144l0.873,0.914l0.535-1.136l-1.163-1.059
	l-1.257-0.787l-0.547-0.974l1.039-1.501l-0.856-0.852l-0.651-0.899l-0.768-0.705l-1.26-0.287l-1.484,0.248l-0.91,0.402h-0.772
	l-1.074-0.892l-0.49-1.402l0.706-1.052l1.261-0.714l1.138-0.321l2.17-0.248l0.798-0.565l0.79-1.402l0.832,1.644l0.892,1.282
	l0.627,1.174l-0.021,1.358l0.819,0.266l0.484-0.632l0.487-0.871l0.772-0.449l0.957-0.345l1.014-0.611l0.789-0.115l0.325,1.069
	l1.218-0.826l1.664-2.866l0.67-0.632l0.692,0.402l0.611,0.939l0.873,1.914l-1.645-0.087l-2.687,3.188l-1.645-0.653l-1.056,0.163
	l-2.883,3.616l-1.46,0.847l0.554,0.778l0.482,0.543l0.573,0.431l2.393,1.175l0.649,0.529l0.523,0.914l1.187-0.324l1.578,0.631
	l1.504,0.996l0.93,0.804l0.148-0.403l0.181-0.321l0.119-0.349l0.021-0.543l1.279,0.509l1.057-0.347l1.077-0.552l1.295-0.099v0.49
	l-0.992,0.852l-0.264,1.214l0.484,0.71l1.238-0.603l0.27,1.175l-0.148,2.678l0.615,1.322l1.037,0.501l0.683-0.671l0.832-1.785
	l0.611-0.342l0.059,0.183l-0.018,0.409l0.285,0.342l0.548,0.06l1.12-0.06l0.479,0.242l0.309,0.851l-0.812,0.41l-1.097,0.303
	l-0.548,0.604l-1.097,0.631l-2.432-0.992l-2.419-1.785l-1.097-1.664l-1.195-1.161l-4.487-1.379l0.039-1.462l-4.183-0.743
	l-0.547,0.161l0.587,0.913l3.43,3.409l0.918,0.422l8.77,7.188l-1.364-0.033l-1.602-1.025l-1.42-1.45l-0.77-1.321h-0.531l0.163,0.722
	l0.179,0.531l0.266,0.471l0.342,0.484l2.017,1.751l7.875,3.693l1.134,0.926l1.239,1.282l0.977,1.443l0.406,1.465l0.484,1.141
	l2.197,2.859l0.649,1.702l-0.306,5.546l0.084,0.911l0.238,0.322l-0.482,0.731l-0.79,0.731l-0.651,0.367l-0.957-0.042l-0.525-0.324
	l-1.807-2.743l-0.755-1.664l-0.484-1.781l-0.179-1.804l0.179-5.443l-0.179-0.772l-1.043,1.745l0.208,4.052l1.316,6.623l0.632,1.137
	l1.138,1.193l1.355,0.632l2.619-1.178l1.525,0.042l1.604,0.282l1.48,0.042l8.014-2.62l2.785-0.12l5.465,0.589l0.909-0.529
	l1.386-2.115l1.744-0.255l1.192-2.012l0.916-0.513l1.056-0.402l0.889-0.731l0.916-0.431l1.117,0.53l-2.046,3.33l-0.309,0.644
	l0.321,1.392l0.775-0.27l0.996-0.872l0.927-0.504l1.346-0.287l1.099-0.651l1.623-1.262l1.054-0.321l1.85-0.244l0.852-0.47
	l3.467-3.328l2.073-1.475l3.347-0.941l2.845-2.336l3.753-2.188l0.769,0.811l1.121-0.097l1.294-0.445l1.343-0.269l2.839,0.269
	l2.582,0.851v0.483l-0.289,0.29l-0.651,0.851l1.954-1.181l0.896-1.832l-0.492-1.687l-2.133-0.744l-4.239-0.551l-0.648-0.401
	l-0.085-0.875l-0.245-0.758l-1.114-0.072l0.875-1.222l1.034,0.321l1.337,0.88l2.315,0.692l1.728,0.725l0.954,0.181l0.159-0.321
	l-1.38-1.664l-0.446-0.711l-0.202,0.287l-0.512,0.523l-0.181,0.311l-0.302-0.719l-0.202-0.402l0.181-0.632l0.099-0.181l-0.034-0.161
	l-0.245-0.651l0.504-0.582l0.265,0.24l0.183,0.121l0.448,0.222l-0.024-1.255l0.45-0.65l2.456-1.363l0.809-0.162l2.174,0.141
	l0.1-0.362l0.405-0.832l0.574-0.894l0.607-0.548l0.364-0.021l0.342,0.181l0.222,0.208l-0.039,0.115h1.42l0.405-0.181l0.392-0.725
	l0.441-0.161l0.413,0.074l0.178,0.201l0.12,0.208l0.202,0.101l0.533,0.463l0.302,0.958l0.362,0.692l0.694-0.287l1.419-0.914
	l4.954-0.43l2.208-0.926l1.346-0.128l5.037,4.141l6.47,4.107l3.09,1.337l1.646-0.342l1.463,1.666l0.845,0.704l1.201,0.289
	l0.851,0.47l3.005,2.29l0.649,0.77l0.591,0.992l2.58,2.725l0.587,1.706l0.303,0.422l0.651,0.392l0.65,0.483l0.285,0.819l0.362,1.879
	l0.056,0.812l0.427,1.322l1.025,1.522l1.238,1.377l1.111,0.958l2.356,1.076l0.467,0.371l0.813,0.791l0.587,0.443l1.4,0.57
	l1.355,0.223l1.184,0.362l0.809,0.992l0.282,1.642l-0.097,1.826l-0.448,1.572l-0.727,0.892l0.405,0.77l0.322,1.137l0.084,1.12
	l-0.349,0.725l1.744,1.302l0.901,0.443l0.683-0.101l3.49,4.14l1.892,1.526l1.705-0.283l1.42,1.201l1.184,1.275l2.106,2.885
	l1.181,2.329l0.181,0.128l0.099,1.645l0.164,0.785l0.242,0.51l0.649,0.71l1.099,0.693l1.236,0.522l1.059,0.222l0.975,0.43
	l0.627,0.992l0.469,1.102l0.501,0.689l-0.789,0.747l-0.044,0.718l0.535,0.523l0.993,0.2l0.36,0.431l0.064,0.911l0.299,0.915
	l1.162,0.422l0.896-0.039l0.462-0.084l1.217-0.462l1.023-0.179l1.941-0.05l0.791-0.26l1.219,0.77l1.521,0.631l1.582,0.057
	l1.366-0.97l0.299,0.444l0.8,0.772l0.302,0.428l0.543-0.368l1.386-0.691v1.572l0.163,1.213l0.547,0.905l1.181,0.632l-1.465,0.899
	l0.768,1.336l2.561,2.037l-0.061,0.341v2.356l-0.204,0.772l-0.342,0.812l0.388,0.629l0.807,0.364l0.813,0.08l-0.448,1.565
	l0.364,1.362l2.884,3.591l0.488,0.402l0.523,0.201l1.321,0.187l0.471,0.2l0.726,1.003l0.184,1.133l-0.505,3.778l0.064,0.832
	l0.501,2.316l-1.705-2.154l-1.093-0.631l-0.961,1.192l0.188,0.693l1.359,1.769l0.346,1.035l0.223,0.282h0.467l0.482,0.129
	l0.223,0.636v2.691l0.148,0.766l0.201,0.551l-0.042,0.531l-0.564,0.765l-0.245,0.572l0.043,0.691l0.202,0.67l0.257,0.525
	l-0.684,1.358l-0.244,6.704l-0.718,2.336l-0.137,0.914l-0.087,4.201l-1.495,2.619l0.074,0.569v0.483l-0.805,0.922l-2.479,6.55
	l0.492-0.159l0.2-0.115l0.265-0.251l0.141,1.014l-0.567,1.102l-1.465,2.168l-0.529,2.188l-0.428,1.046l-0.907,1.014l-0.651-0.429
	l-0.309,1.034l-0.078,1.525l0.044,1.054l0.364,1.952l0.406,1.176l0.65,1.119l-0.632,0.685l-0.181,0.953l-0.102,2.056l-1.504,7.086
	l-2.296,6.228l-0.343-1.115l0.144-1.363l0.51-1.321l0.65-1.014l-0.714,0.684l-0.768,1.099l-0.612,1.324l-0.265,1.424l0.138,1.503
	l0.654,2.208l0.145,1.034l0.953,1.805l4.205,4.142l0.948,2.544l0.206,1.274l0.551,1.725l0.77,1.383l0.872,0.184l0.057-0.974
	l-0.471-1.689l-1.012-2.657l-0.813-1.402l-4.097-4.463l-0.547-1.08l0.258-1.072l1.302,1.295l2.678,2.132l1.218,1.422l1.238,1.867
	l0.833,0.524l1.484,0.195l0.124,0.339l-0.084,1.689l0.158,0.651l0.386,0.342l0.469,0.138h1.261l1.116-0.467l0.775-1.136l0.242-1.402
	l-0.491-1.255l0.852-2.384l0.086-0.504l0.198-0.402l0.935-1.183l0.283-0.772V249.2l-0.36-1.633l-0.102-0.91l2.184-1.324l0.614-0.484
	l-2.941,0.371l-2.645-1.04l-2.555-1.484l-2.637-1.072l1.09-1.304l3.174-0.885l0.853-0.98h-2.542l-0.629-0.162l-0.024-0.368
	l0.405-0.563l0.044-0.349l0.342-0.847l0.085-0.615l-0.119-0.544l-0.598-1.219l-0.179-0.674l2.785,2.706l-0.021-0.813l0.021-0.247
	h0.427l0.568,0.832l0.85,0.718l1.909,1.055v0.563l-1.418,0.53v0.591l2.166,0.034l1.807,0.396l1.225,0.993l0.44,1.984l-0.44,3.731
	l0.097,1.936l0.853,1.482l0.612,0.163l2.431,0.101l0.328-0.774l-0.124-0.791l-0.43-1.094l0.086-2.845l0.285-1.236l0.61-0.918
	l1.422-0.813l1.197,0.127l0.833,0.933l0.631,3.21l1.356,3.228l0.201,1.765l-0.564,1.181l-2.23,2.499l-0.491,0.783l-1.924,1.35
	l-0.33,0.523l-1.078,2.157l-0.479,0.322l-0.631,0.197l-0.531,0.405L489,260.976l-0.204,0.602l-1.905,1.525l-0.916,1.586
	l-0.488,1.603l-0.663,1.396l-1.486,0.991l0.283,0.738l0.183,0.283l-0.815,0.954l0.877-0.381l1.098-0.162l-0.428,0.932l-0.939,0.692
	l-2.007,0.543l-1.078,0.567l0.999,0.208l0.833,0.309l0.749,0.461l0.709,0.612l-1.458,0.099l-1.787-0.909l-1.668-0.513l-1.193,1.324
	l0.428,0.484l0.467,0.349l0.503,0.082l0.492-0.322h0.427l0.043,0.764l-0.127,0.688l-0.322,0.632l-0.49,0.526l-0.77-0.768
	l-1.805-0.852l-0.714-0.53l-0.362-0.602l-1.056-2.544h-0.467l0.244,1.222l1.321,3.49l0.79,1.123l1.08,0.458l2.554,0.448l2.657,1.995
	l1.304,0.681l0.971,1.014l0.757,3.721l1.439,2.943l0.077,1.93h-0.465l-0.222-0.471l-0.225-0.221l-0.245-0.141l-0.303-0.26
	l0.018,1.666l0.853,1.501l1.138,1.521l0.815,1.666h0.504v-1.054l0.711,0.504l0.469,0.833l0.245,1.093v1.304l-0.372-0.388
	l-0.244-0.383l-0.321-0.863l0.383,1.735l1.627,3.187l0.689,2.726l6.234,12.424l0.449,1.514l0.279,0.29l0.347,0.264l0.832,0.5
	l-0.326-1.172l-0.907-1.807l-0.226-1.201l1.868,2.034l2.008,6.557l2.046,1.396l0.631,0.02l0.491,0.106l0.975,0.342l0.543,0.346
	l0.65,0.629l0.471,0.128l0.406-0.086l0.201-0.181l0.12-0.164l0.221-0.078l0.33,0.162l0.65,0.764l0.223,0.148l0.428-0.286
	l0.504-0.567l0.405-0.53l0.064-0.283l0.588,0.836l0.244,2.17l0.61-0.326l0.45-1.014l-0.068-1.138l-0.607-3.384l-1.099-2.825
	l-0.362-0.593l-0.424-0.487l-0.954-2.373l-0.734-0.85l-0.504,0.563l-0.757-0.684l-1.983-2.495l-0.815-1.426l-0.198-0.625
	l1.419,0.708l0.768,0.852l1.366,2.334l1.014,0.27l1.134-0.599l0.692-0.221l-0.244,1.324l1.257,1.461l0.749,0.651l0.326-0.251
	l0.41-0.721l0.854-0.128l0.832-0.27l0.299-1.214l1.586,0.431l1.238-0.251l1.18-0.484l2.795-0.582l1.484-1.422l1.161-0.368
	l-0.854,2.354l-0.384,0.547l-0.649,0.346l-1.509,0.322l-3.422,2.053l-1.345,1.034l-0.097,0.993l1.396,1.181l0.935,0.465l0.507,0.708
	l0.163,1.876l-0.141,1.722l-1.685,8.894l-0.043,1.718l0.322,1.179l1.205,2.722l0.342,1.38l-0.099,1.785l-0.351,1.125l-0.12,0.926
	l0.569,1.339l1.074,1.195l0.854-0.02l0.954-0.586l1.375-0.589v1.08l0.67-0.326l1.603-0.471l0.554-0.283l0.279-0.405l2.072-5.941
	l0.753-1.228l2.252-2.41l1.324-1.103l1.132-0.461l1.305-0.191l1.641-0.971l1.016-0.405l-0.291,0.922l-0.36,0.685l-0.529,0.55
	l-0.689,0.504l-0.711-0.402l-0.774,0.326l-0.607,0.664l-0.265,0.712l-3,2.99l-0.79,0.991l0.278,1.936l-1.29,2.081l-1.836,1.794
	l-1.867,1.261l-0.302,0.359l-0.308,0.29l-0.526,0.115l-0.488-0.223l-0.467-0.853l-0.282-0.02l-0.405,0.692l-0.184,1.119v1.129
	l0.163,0.753l0.427-0.563l0.385,0.383l0.202,0.08l0.916-0.461l3.749,2.087h1.407l0.321,0.197l0.307,0.368l0.465,0.204l0.328-0.204
	l0.282-0.662l-0.26-1.913l-0.021-1.119l0.473,1.172l1.375,2.423l0.49,1.132l0.342,1.508l0.12,4.751h-0.462v-0.504h-0.467
	l0.244,1.248l2.05,3.76l0.044,0.24l0.013,0.51l-0.418,2.617l0.586,5.969l1.236,5.465h0.505l-0.042-0.833l0.021-0.813l0.168-0.751
	l0.278-0.708l1.175,5.465l1.097,1.939l1.954,1.531l-0.587,0.705l0.183,0.935l0.65,0.879l0.747,0.586l0.651,0.158l1.56-0.201
	l1.014,0.043l-0.225,0.889l-0.525,1.023l-0.67,0.843l-0.632,0.369l-0.769-0.402l-0.768-0.796l-0.813-0.504l-0.958,0.398l0.448,2.219
	l0.265,0.582l0.671,0.8l0.258,0.162l0.488,0.08h0.43l-0.041-0.53l0.384-0.342l0.158-0.168l0.245-0.563l0.226-0.428l0.469,0.651
	l0.691,0.385l0.813,0.145l0.852-0.191l0.663-0.422l0.51-1.056l0.696-0.55l0.381,0.896l0.663,0.608l0.781,0.29l0.568-0.188
	l0.115,0.487l0.166,0.181v0.223l-0.282,0.569l0.563-0.227l0.79-0.664l0.289-0.148l0.61,0.168l0.935,0.714l1.42,0.602l0.794,0.77
	l0.726,0.329l0.916-0.974l0.711,0.645l0.89,1.241l0.794,0.664l0.85,0.355l2.014,0.362l0.89,0.362l1.642,1.175l1.645,1.465
	l1.302,2.014l0.53,0.586l-1.811,1.379l-0.633,0.833l0.858,0.381l0.308,0.428l0.833,2.027l0.446,0.651l0.591,0.106l2.312,0.162
	l0.077,1.376l0.244,0.853l0.569,0.612l-0.02,1.054l1.439,2.618l0.714,3.414l0.265,0.727l0.812,0.329l1.557-0.381l0.651,0.32
	l0.108,0.53l-0.269,0.586l-0.406,0.484l-1.277,0.85l0.765,1.51l2.234,2.499l0.979,2.916l0.076,0.731l0.371,1.567l0.078,0.809
	l0.531,0.794l3.162,2.538l2.624,0.504l0.381,0.181l1.2,0.734l2.411,0.409l1.26,0.671l3.902,4.141l0.462,1.333l-0.683,1.646
	l-1.205,0.898l-1.477,0.402l-1.503-0.039l-1.219-0.504v-0.471l0.386-0.121l0.65-0.329l0.385-0.112v-0.52l-5.262-2.226l-0.889-0.632
	l-0.221-0.039l-1.205-2.315l-0.465-0.612l-0.691-0.684l-0.812-0.554l-0.833-0.158l0.428-1.099l-1.281,1.014l-1.134,2.495
	l-0.736,2.966l-0.095,2.364l0.792,2.315l1.132,2.367l3.23,3.111l1.073,0.24l3.21-0.77l2.765-0.264l2.232-0.487l2.633-0.043
	l1.283-0.24l1.578-1.725l0.286-0.108l1.932-1.248l1.014,0.967l2.051,0.428l-0.245,0.612v0.563l0.606,0.227l0.322,0.059l0.226-0.217
	l0.247-0.632l0.36,0.422l0.372,0.251l0.342,0.178l0.345,0.223l0.082-0.349l0.116-0.223l0.148-0.197l0.162-0.303l0.674,0.809
	l1.09,0.381l1.161,0.043l0.836-0.162l1.356-1.304l0.896-0.402l1.033,0.632h0.428l0.405-0.632l-0.042-0.471l-0.244-0.491l-0.12-0.701
	l0.386-0.251l2.517-0.543l-0.125,0.322l-0.077,0.039l-0.106-0.02l-0.204,0.162l1.078,0.381l0.611-1.106l0.491-1.666l0.663-1.221
	l1.054-0.349l2.765-0.037l0.896-0.125l0.258,0.491l0.082,0.227l0.087,0.313l-0.61,0.132l-0.33,0.162l-0.183,0.3l-0.276,0.479
	l0.471,0.24l0.383,0.322l0.309,0.431l0.226,0.51l1.174-0.751l1.356,0.178l1.037,0.954l0.226,1.666h0.508l-0.226-1.525l-0.829-1.195
	l-1.239-0.691l-1.503-0.141l0.851-0.974l1.368-0.649l1.07-0.082v1.142l0.935,0.342l1.358,1.949l1.035,0.856l0.021-0.718
	l-0.877-0.853l-0.833-1.123l0.193-1.495l0.077-0.833l1.175-1.343l0.244-0.685l0.124-0.649l0.322-0.569l3.107-3.539l2.497-2.189
	l0.104-0.932l-0.509-0.602l-0.877-0.491l-0.542-0.612l0.503-1.415l0.554-1.06l-0.269-0.405l-0.487-0.309l-0.299-0.428l-0.226-1.623
	l0.119-1.396l0.598-1.376l1.128-1.593l0.431-1.3l0.059-3.713l0.245-1.462l2.009-1.969l1.419-3.245l0.119-1.828l0.247-0.731
	l0.753-0.671l0.664-0.121h0.67l0.714-0.29l1.014-1.435l0.044-3.18l0.864-2.021l0.43-2.728l2.474-3.236l0.555-0.039l0.223,1.01
	l0.034,1.975l-0.46,3.43v3.167h0.46l1.097-22.333l-1.097-1.702v-0.569l1.141-0.872l0.651-2.278l1.721-11.248l-0.223-1.676
	l0.413-1.123l0.117-1.277l-0.061-2.617l0.146-1.159l0.688-2.317l0.561-10.367l1.078-0.148l0.386-2.209L659.454,334.986z
	 M618.023,456.849l0.102-0.731l-0.285-0.932l-0.043-0.151l-0.257,0.23l-0.085,0.783l0.265,0.82L618.023,456.849z M594.539,446.48
	l0.427-0.326l0.461-0.082l-0.424-0.55l-0.385-0.059l-0.021,0.119l0.061,0.141l0.044,0.08l-0.309,0.372L594.539,446.48z
	 M595.798,448.623l0.64,0.188h0.107l-0.082-0.573l0.531-0.253l0.321-0.208l-0.138-0.121l0.039-0.29l-0.467-0.138l-0.389-0.039
	l0.184,0.24l-0.184,0.349L595.798,448.623z M482.013,270.392l-0.184,0.244l-0.341,0.651l1.269-0.547l-0.48-0.286L482.013,270.392z
	 M482.869,270.801l0.114-0.145l-0.226,0.086L482.869,270.801z M464.145,493.68l0.084-0.128l-0.039-0.283L464.145,493.68z
	 M460.719,493.208l0.299-0.204l-0.217-0.227L460.719,493.208z M464.658,493.386v-0.266l-0.087,0.214L464.658,493.386z
	 M465.653,491.832v-0.069l-0.144,0.086l0.076,0.099l0.021,0.039l0.106-0.039l-0.039-0.145L465.653,491.832z M464.881,493.68
	l0.12-0.181l-0.141-0.03L464.881,493.68z"/>
<polygon points="587.644,484.682 587.727,484.554 587.688,484.27 "/>
<polygon points="584.218,484.21 584.517,484.007 584.3,483.779 "/>
<polygon points="588.157,484.388 588.157,484.121 588.069,484.336 "/>
<polygon points="589.151,482.834 589.151,482.765 589.008,482.851 589.084,482.95 589.104,482.99 589.21,482.95 589.171,482.806 "/>
<polygon points="588.38,484.682 588.5,484.5 588.359,484.47 "/>
</svg>
