<svg version="1.2" baseProfile="tiny" xmlns="http://www.w3.org/2000/svg" xmlns:xlink="http://www.w3.org/1999/xlink"
	 width="50px" height="50px" viewBox="0 0 50 50">
<g>
	<path fill="#ee6363" d="M36.822,24.25c0,3.659-4.471,5.625-13.688,5.625c-7.884,0-15.688-3.042-15.688-5.625
		c0-2.333,8.97-5.625,15.688-5.625C32.351,18.625,36.822,20.591,36.822,24.25z"/>
	<path fill="none" stroke="#EE3B7A" stroke-width="2" stroke-linecap="round" stroke-linejoin="round" stroke-miterlimit="10" d="
		M35.197,2.094c-5,0-7.313,4.406-5.125,6.781c7.5,6,5.282,11.199,5.729,15.188"/>
	<path fill="#ee6363" d="M40.592,6.288c-0.651,1.462-3.195,1.403-5.256,0.485s-2.802-3.178-2.151-4.64
		c0.651-1.462,2.793-1.072,4.854-0.154C40.1,2.896,41.243,4.826,40.592,6.288z"/>
	<path fill="#ee6363" d="M39.634,10.708c1.14-1.375,0.667-2.458,0.312-2.832c-1.305-1.376-2.966-2.971-0.949-3.022
		c1.324-0.034,3.322,1.669,3.532,2.958C42.775,9.312,41.009,10.708,39.634,10.708z"/>
	<line fill="none" stroke="#ee6363" stroke-miterlimit="10" x1="19.697" y1="28.458" x2="19.697" y2="50"/>
	<line fill="none" stroke="#ee6363" stroke-miterlimit="10" x1="20.065" y1="29.326" x2="25.139" y2="34.579"/>
	<line fill="none" stroke="#ee6363" stroke-miterlimit="10" x1="25.154" y1="33.918" x2="19.822" y2="39.082"/>
</g>
</svg>
