<svg version="1.1" id="Layer_1" xmlns="http://www.w3.org/2000/svg" xmlns:xlink="http://www.w3.org/1999/xlink" x="0px" y="0px" width="400px" height="400px" viewBox="0 0 99 41.919" enable-background="new 0 0 99 41.919" xml:space="preserve">
<path fill="#010101" d="M-0.999-0.575c0.125-0.141,0.39-0.401,0.525-0.531h-0.525V-0.575z"></path>
<path fill="#010101" d="M98.934,20.939c-0.249-0.985-0.347-2.058-0.812-2.936c-0.238-0.552-0.65-0.91-1.019-1.3
	c-0.553-0.574-1.191-1.018-1.776-1.517c-0.391-0.325-0.823-0.498-1.235-0.769c-0.574-0.444-0.975-1.159-1.419-1.798
	c-0.314-0.477-0.704-0.866-1.029-1.311c-0.26-0.314-0.487-0.65-0.758-0.932c-0.759-0.769-1.669-1.257-2.448-1.972
	c-0.563-0.52-1.257-0.704-1.885-1.072c-0.499-0.282-0.953-0.683-1.474-0.877c-1.311-0.488-2.557-1.235-3.911-1.528
	c-1.224-0.206-2.437-0.542-3.65-0.866c-0.434-0.087-0.866-0.033-1.278-0.228c-0.368-0.173-0.747-0.271-1.126-0.325
	c-0.521-0.065-0.997-0.314-1.517-0.368c-0.455-0.043-0.91-0.043-1.344-0.184c-0.628-0.195-1.268-0.292-1.896-0.477
	c-0.77-0.206-1.527-0.53-2.297-0.693c-1.104-0.347-2.199-0.802-3.325-0.975c-0.78-0.119-1.561-0.282-2.34-0.325
	c-1.105-0.032-2.188-0.4-3.305-0.4c-0.894-0.011-1.787-0.174-2.675-0.022c-0.867,0.195-1.744,0.098-2.611,0.173
	c-0.504-0.032-0.98,0.228-1.484,0.238c-0.254,0.011-0.503,0.021-0.752,0.065c-0.683,0.098-1.322,0.574-2.021,0.477
	c-1.917,0.357-3.759,1.181-5.579,2.004c-0.455,0.206-0.926,0.336-1.376,0.552c-0.58,0.282-1.126,0.672-1.733,0.845
	c-0.433,0.119-0.855,0.314-1.235,0.617c-0.514,0.401-1.105,0.585-1.63,0.954c-0.568,0.368-1.186,0.596-1.766,0.931
	c-0.623,0.369-1.3,0.596-1.879,1.083c-0.39,0.336-0.888,0.26-1.294,0.542c-0.287,0.185-0.563,0.401-0.877,0.477
	c-0.623,0.163-1.203,0.509-1.809,0.748c-1.013,0.4-1.999,0.932-3.006,1.375c-0.986,0.52-2.009,0.888-2.995,1.408
	c-0.363,0.173-0.742,0.292-1.11,0.477c-1.083,0.553-2.205,0.943-3.31,1.419c-0.515,0.238-1.035,0.542-1.592,0.552
	c-0.298-0.108-0.558-0.336-0.834-0.509c-0.667-0.487-1.403-0.747-2.118-1.072c-0.796-0.401-1.641-0.585-2.448-0.942
	c-1.63-0.531-3.325-0.791-5.01-0.672c-0.661,0.087-1.333,0.195-1.945,0.531c-0.693,0.379-1.354,0.866-1.95,1.462
	c-0.525,0.542-1.11,0.997-1.549,1.668c-0.406,0.618-0.704,1.343-1.045,2.026c-0.368,0.791-0.85,1.495-1.1,2.383
	c-0.39,1.127-0.438,2.416-0.244,3.618c0.217,1.777,0.812,3.499,1.744,4.843c0.287,0.455,0.509,0.985,0.839,1.387
	c0.488,0.606,1.029,1.126,1.555,1.668c0.45,0.466,0.975,0.791,1.468,1.181c1.062,0.986,2.486,0.942,3.694,0.509
	c1.078-0.487,1.988-1.419,2.941-2.198c0.401-0.347,0.748-0.802,1.148-1.148c0.536-0.477,0.991-1.084,1.549-1.517
	c0.52-0.412,1.035-0.856,1.592-1.192c1.647-0.975,3.396-1.711,4.918-3.011c0.374-0.314,0.791-0.51,1.229-0.618
	c0.699-0.162,1.408-0.357,2.123-0.292c0.434,0.043,0.867-0.011,1.289-0.108c0.428-0.108,0.851,0.162,1.278,0.065
	c0.385-0.076,0.78-0.152,1.17-0.13c0.807,0.043,1.62,0,2.421-0.087c0.72-0.087,1.446,0.032,2.161-0.13
	c0.617-0.131,1.251-0.044,1.874-0.033c0.531,0.021,1.056-0.054,1.587-0.021c0.45,0.021,0.899,0.141,1.349,0.141
	c0.536,0,1.083-0.054,1.609,0.131c0.726,0.238,1.489,0.227,2.209,0.509c0.515,0.217,1.062,0.043,1.587,0.162
	c1.051,0.325,2.096,0.683,3.163,0.889c0.503,0.108,0.997,0.325,1.511,0.379c1.305,0.271,2.572,0.802,3.889,0.975
	c1.289,0.412,2.622,0.434,3.938,0.597c0.537,0.043,1.078,0,1.609,0.141c0.649,0.162,1.311-0.044,1.961,0.098
	c0.503,0.107,1.002,0.249,1.511,0.238c0.78-0.033,1.571,0.043,2.351-0.065c1.072-0.185,2.156-0.021,3.239-0.13
	c0.715-0.065,1.43-0.141,2.145-0.238c-0.194,0.726-0.747,1.138-0.996,1.82c-0.217,0.617-0.412,1.267-0.553,1.928
	c-0.151,0.639,0.162,1.235,0.249,1.853c0.098,0.953-0.087,1.928,0.021,2.87c0.152,0.499,0.325,1.051,0.672,1.376
	c0.693,0.325,1.484,0.563,2.21,0.185c0.672-0.217,1.235-0.812,1.723-1.441c0.357-0.52,0.466-1.213,0.758-1.787
	c0.098,0.802,0.119,1.614,0.055,2.427c-0.011,0.325-0.076,0.683,0.043,0.997c0.206,0.671,0.553,1.234,0.866,1.809
	c0.412,0.747,0.51,1.723,0.954,2.438c0.39,0.574,0.953,0.953,1.549,0.942c0.899,0.098,1.853-0.195,2.567-0.953
	c0.899-1.148,1.755-2.459,2.08-4.073c0.217-1.387,0.238-2.86-0.13-4.203c-0.282-1.517-0.672-2.979-1.127-4.42
	c-0.217-0.65-0.292-1.365-0.444-2.036c0.617-0.011,1.246,0.043,1.842-0.142c1.094-0.379,2.231-0.422,3.348-0.52
	c0.888-0.185,1.755-0.347,2.643-0.487c0.498-0.098,1.029,0.054,1.495,0.357c0.401,0.271,0.672,0.769,1.083,1.062
	c0.325,0.184,0.683,0.195,1.029,0.292c0.748,0.185,1.484,0.38,2.242,0.401c0.574-0.055,1.116-0.368,1.69-0.357
	c0.585,0,1.148-0.249,1.689-0.542c0.704-0.368,1.268-1.094,1.776-1.819c0.412-0.586,0.521-1.387,0.759-2.102
	C98.999,21.915,99.053,21.405,98.934,20.939z"></path>
</svg>